<?xml version="1.0" encoding="UTF-8"?>
<svg xmlns="http://www.w3.org/2000/svg" width="24" height="24" viewBox="0 0 24 24">
    <path fill="#CCCCCC" d="M16,4.8C17.32,4.8 18.4,5.87 18.4,7.2C18.4,8.53 17.32,9.6 16,9.6C14.68,9.6 13.6,8.53 13.6,7.2C13.6,5.87 14.68,4.8 16,4.8M16,14.4C19.94,14.4 23.2,16.03 23.2,18.2V20H8.8V18.2C8.8,16.03 12.06,14.4 16,14.4M8,4.8C9.32,4.8 10.4,5.87 10.4,7.2C10.4,8.53 9.32,9.6 8,9.6C6.68,9.6 5.6,8.53 5.6,7.2C5.6,5.87 6.68,4.8 8,4.8M8,14.4C11.94,14.4 15.2,16.03 15.2,18.2V20H0.8V18.2C0.8,16.03 4.06,14.4 8,14.4M16,12C13.33,12 8,13.33 8,16V18H24V16C24,13.33 18.67,12 16,12M8,12C5.33,12 0,13.33 0,16V18H6V16C6,14.23 6.81,13.1 8,12Z" />
</svg>

